<svg width="24" height="24" viewBox="0 0 24 24" fill="blue" xmlns="http://www.w3.org/2000/svg">
<path d="M5.99844 14.3996C5.99844 15.0623 6.53569 15.5996 7.19844 15.5996C7.86118 15.5996 8.39844 15.0623 8.39844 14.3996L8.39844 7.69667L9.94991 9.24814C10.4185 9.71677 11.1783 9.71677 11.647 9.24814C12.1156 8.77951 12.1156 8.01971 11.647 7.55108L8.04697 3.95108C7.82192 3.72604 7.5167 3.59961 7.19844 3.59961C6.88018 3.59961 6.57495 3.72604 6.34991 3.95108L2.74991 7.55108C2.28128 8.01971 2.28128 8.77951 2.74991 9.24814C3.21854 9.71677 3.97834 9.71677 4.44697 9.24814L5.99844 7.69666L5.99844 14.3996Z" fill="current"/>
<path d="M17.9984 9.59961C17.9984 8.93687 17.4612 8.39961 16.7984 8.39961C16.1357 8.39961 15.5984 8.93687 15.5984 9.59961L15.5984 16.3026L14.047 14.7511C13.5783 14.2825 12.8185 14.2825 12.3499 14.7511C11.8813 15.2197 11.8813 15.9795 12.3499 16.4481L15.9499 20.0481C16.175 20.2732 16.4802 20.3996 16.7984 20.3996C17.1167 20.3996 17.4219 20.2732 17.647 20.0481L21.247 16.4481C21.7156 15.9795 21.7156 15.2197 21.247 14.7511C20.7783 14.2825 20.0185 14.2825 19.5499 14.7511L17.9984 16.3026L17.9984 9.59961Z" fill="#current"/>
</svg>
